<svg width="14" height="13" viewBox="0 0 14 13" fill="none" xmlns="http://www.w3.org/2000/svg">
<path d="M13.138 6.19259L7.80467 0.859254C7.71143 0.766047 7.59266 0.702577 7.46335 0.676865C7.33405 0.651153 7.20003 0.664355 7.07823 0.714802C6.95643 0.765249 6.85232 0.850675 6.77907 0.960281C6.70581 1.06989 6.6667 1.19875 6.66667 1.33059V3.69392C4.84553 3.86245 3.15282 4.70449 1.91979 6.05527C0.686769 7.40605 0.00218115 9.16833 0 10.9973V11.9973C0.000105237 12.1356 0.0432731 12.2706 0.123516 12.3833C0.203759 12.4961 0.3171 12.581 0.447817 12.6265C0.578534 12.6719 0.72015 12.6755 0.85302 12.6368C0.98589 12.5982 1.10343 12.5191 1.18933 12.4106C1.84246 11.6339 2.64384 10.9951 3.54663 10.5317C4.44942 10.0682 5.43553 9.78929 6.44733 9.71125C6.48067 9.70725 6.564 9.70059 6.66667 9.69392V11.9973C6.6667 12.1291 6.70581 12.258 6.77907 12.3676C6.85232 12.4772 6.95643 12.5626 7.07823 12.613C7.20003 12.6635 7.33405 12.6767 7.46335 12.651C7.59266 12.6253 7.71143 12.5618 7.80467 12.4686L13.138 7.13525C13.263 7.01023 13.3332 6.8407 13.3332 6.66392C13.3332 6.48714 13.263 6.31761 13.138 6.19259ZM8 10.3879V8.99725C8 8.82044 7.92976 8.65087 7.80474 8.52585C7.67971 8.40083 7.51014 8.33059 7.33333 8.33059C7.16333 8.33059 6.46933 8.36392 6.292 8.38725C4.49524 8.5528 2.78495 9.23544 1.368 10.3526C1.52883 8.88221 2.22636 7.52282 3.32704 6.53469C4.42771 5.54657 5.85419 4.99915 7.33333 4.99725C7.51014 4.99725 7.67971 4.92702 7.80474 4.80199C7.92976 4.67697 8 4.5074 8 4.33059V2.93992L11.724 6.66392L8 10.3879Z" fill="#D5E0F2" style="fill:#D5E0F2;fill:color(display-p3 0.8353 0.8784 0.9490);fill-opacity:1;"/>
</svg>
