<?xml version="1.0" encoding="UTF-8"?>
<svg width="332px" height="85px" viewBox="0 0 332 85" version="1.1" xmlns="http://www.w3.org/2000/svg" xmlns:xlink="http://www.w3.org/1999/xlink">
    <title>ic_emoji</title>
    <defs>
        <linearGradient x1="50%" y1="100%" x2="82.4628302%" y2="38.5408031%" id="linearGradient-1">
            <stop stop-color="#429A7D" offset="0%"></stop>
            <stop stop-color="#21D045" offset="100%"></stop>
        </linearGradient>
        <linearGradient x1="50%" y1="0%" x2="50%" y2="100%" id="linearGradient-2">
            <stop stop-color="#FF9BAB" offset="0%"></stop>
            <stop stop-color="#E53347" offset="100%"></stop>
        </linearGradient>
        <linearGradient x1="50%" y1="0%" x2="50%" y2="100%" id="linearGradient-3">
            <stop stop-color="#FFA8B2" offset="0%"></stop>
            <stop stop-color="#E03E4A" offset="100%"></stop>
        </linearGradient>
        <rect id="path-4" x="0" y="0" width="45" height="45"></rect>
        <linearGradient x1="50%" y1="0%" x2="50%" y2="100%" id="linearGradient-6">
            <stop stop-color="#FBE4D8" offset="0%"></stop>
            <stop stop-color="#FCAD8A" offset="100%"></stop>
        </linearGradient>
        <linearGradient x1="59.298859%" y1="10.2948678%" x2="59.298859%" y2="100%" id="linearGradient-7">
            <stop stop-color="#FFDECC" offset="0%"></stop>
            <stop stop-color="#FFBD9D" offset="100%"></stop>
        </linearGradient>
        <linearGradient x1="50%" y1="0%" x2="50%" y2="100%" id="linearGradient-8">
            <stop stop-color="#FF9BAB" offset="0%"></stop>
            <stop stop-color="#E53347" offset="100%"></stop>
        </linearGradient>
        <path d="M0.211697923,15.5608213 L15.8458763,0.404222264 C16.3994602,-0.132451257 17.299711,-0.135066467 17.8566427,0.398381029 C17.9571723,0.494671585 18.0421949,0.604906444 18.1088901,0.725429036 L18.922241,2.19520701 C19.9664705,4.08219772 19.7515181,6.38603217 18.3747386,8.06327195 L15.3048936,11.8030621 L23.3147083,11.8030621 C25.3040769,11.8030621 26.9167788,13.3571025 26.9167788,15.2741085 L26.9167788,17.2886334 C26.9167788,18.093048 26.2400563,18.745155 25.4052768,18.745155 L25.8321408,19.209035 C27.3328724,20.8399046 27.6023928,23.2057647 26.5045561,25.1115207 L22.3705525,32.2878174 C21.1170606,34.4637783 18.7375303,35.8134991 16.1548474,35.8134991 L12.220697,35.8134991 C8.05497366,35.8134991 4.03132842,34.3540713 0.899521347,31.7071632 C0.499734082,31.7071632 0.199893633,31.7071632 0,31.7071632" id="path-9"></path>
        <path d="M0,0 L6.37175072,0 C7.76058443,1.88964596e-16 8.88645661,1.12587217 8.88645661,2.51470588 L8.88645661,22.5547435 C8.88645661,23.9435772 7.76058443,25.0694494 6.37175072,25.0694494 L0,25.0694494 L0,25.0694494 L0,0 Z" id="path-11"></path>
    </defs>
    <g id="消息&amp;导航栏" stroke="none" stroke-width="1" fill="none" fill-rule="evenodd">
        <g id="切图汇总" transform="translate(-685.000000, -834.000000)">
            <g id="ic_emoji" transform="translate(685.000000, 834.000000)">
                <rect id="矩形" x="4" y="4" width="324" height="77" rx="4"></rect>
                <g id="编组-2" transform="translate(28.000000, 20.000000)">
                    <g id="ic_handclap">
                        <rect id="矩形" x="0" y="0" width="45" height="45"></rect>
                        <g id="编组-12" transform="translate(4.154002, 1.759160)">
                            <g id="编组-10" transform="translate(0.000000, 7.000000)">
                                <path d="M25.5860705,11.5663442 L15.1321057,0.568155505 C13.9577654,-0.189385168 12.9331683,-0.189385168 12.0583145,0.568155505 C11.1834606,1.32569618 11.1834606,2.31021453 12.0583145,3.52171055 C11.532153,2.66793688 10.9612248,2.06931989 10.3455296,1.72585957 C9.42198695,1.2106691 8.65030972,1.06981136 7.24845249,2.02057377 C6.11931667,2.78637207 6.19264697,4.27487057 6.38987597,4.80294941 C6.67776406,5.57376713 7.30725803,6.40707008 8.27835788,7.30285824 C6.98977149,6.4784566 5.93161189,6.56630204 5.10387909,7.56639456 C4.07589348,8.80843877 5.0035928,10.1216877 5.25223545,10.5724825 C5.61831494,11.236193 6.62702241,12.1463323 8.27835788,13.3029003 C6.94029718,12.8433726 6.00742191,12.9110857 5.47973207,13.5060396 C4.63300177,14.4607017 4.81884821,15.7667904 5.4065572,16.7760125 C6.72156947,19.0341698 13.5860693,27.7808817 17.6283488,28.6018135 C21.6706282,29.4227453 26.0943315,27.7808817 29.3406911,23.7222369 C32.5870506,19.6635921 33.2933503,16.1120206 31.6050601,11.9334495 C29.9167699,7.75487834 24.0616565,2.42766584 22.5669849,1.72585957 C21.0723133,1.02405331 19.6942315,3.21349953 20.6502598,6.32960262" id="路径-58备份" fill="#F5C5AF"></path>
                                <path d="M20.9560662,12.7240482 L10.5021014,1.72585957 C9.32776114,0.9683189 8.30316407,0.9683189 7.42831019,1.72585957 C6.55345632,2.48340025 6.55345632,3.4679186 7.42831019,4.67941462 C6.90214876,3.82564095 6.33122049,3.22702396 5.71552536,2.88356364 C4.79198268,2.36837317 4.02030546,2.22751543 2.61844822,3.17827783 C1.4893124,3.94407613 1.5626427,5.43257464 1.7598717,5.96065347 C2.04775979,6.7314712 2.67725376,7.56477415 3.64835361,8.46056231 C2.35976722,7.63616067 1.30160762,7.72400611 0.473874825,8.72409863 C-0.554110791,9.96614284 0.37358853,11.2793918 0.62223118,11.7301866 C0.98831067,12.3938971 1.99701815,13.3040363 3.64835361,14.4606043 C2.31029291,14.0010767 1.37741764,14.0687898 0.849727804,14.6637437 C0.00299750472,15.6184058 0.188843945,16.9244945 0.776552928,17.9337165 C2.0915652,20.1918738 11.1479218,27.3789313 15.1902013,28.1998631 C19.2324808,29.0207949 21.4643272,28.9385858 24.7106868,24.8799409 C27.9570464,20.8212961 28.663346,17.2697246 26.9750559,13.0911535 C25.2867657,8.91258241 19.4316522,3.58536991 17.9369806,2.88356364 C16.442309,2.18175737 15.0642272,4.3712036 16.0202555,7.48730669" id="路径-58" fill="#F6CEBB"></path>
                                <polygon id="矩形" fill="#FFFFFF" transform="translate(23.670874, 23.681474) rotate(-44.000000) translate(-23.670874, -23.681474) " points="14.9890844 21.3670228 32.3530698 21.3655012 32.352664 25.9959256 14.9886787 25.9974472"></polygon>
                                <polygon id="矩形备份-2" fill="#FFCD23" transform="translate(25.999267, 26.166151) rotate(-44.000000) translate(-25.999267, -26.166151) " points="16.2806613 23.3820795 35.6326564 23.2712912 35.7178723 28.9502218 16.3658772 29.0610101"></polygon>
                            </g>
                            <line x1="16.5646156" y1="0" x2="16.5646156" y2="3.28721937" id="路径-59" stroke="#429A7D" stroke-width="2" stroke-linecap="round"></line>
                            <line x1="23.1232719" y1="2.5758937" x2="21.332924" y2="5.33278783" id="路径-59备份" stroke="#429A7D" stroke-width="2" stroke-linecap="round"></line>
                            <line x1="12.1232719" y1="2.5758937" x2="10.332924" y2="5.33278783" id="路径-59备份-2" stroke="#429A7D" stroke-width="2" stroke-linecap="round" transform="translate(11.228098, 3.954341) scale(-1, 1) translate(-11.228098, -3.954341) "></line>
                        </g>
                    </g>
                    <g id="编组" transform="translate(154.000000, 0.000000)">
                        <rect id="矩形" x="0" y="0" width="45" height="45"></rect>
                        <path d="M21,21.5 C21.8278657,21.5 22.5,21.8551251 22.5,22.292534 L22.5003887,30.3542961 C23.1639068,29.5396518 23.9172555,28.7692452 24.7394603,28.1394084 C27.2034831,26.2516821 32.7415498,25.5768818 32.9872085,26.2602265 C33.2328672,26.9435711 29.8893561,31.5304916 27.3302621,33.2388426 C25.7744362,34.2830722 23.9781917,35.2164966 22.4997948,35.8143608 L22.5,41.707466 C22.5,42.1448738 21.75,42.938075 21,42.938075 C20.25,42.938075 19.5,42.1448606 19.5,41.7074517 L19.5003917,37.506022 C18.3692029,37.1845484 17.1590937,36.732703 16.3442134,36.2312473 C13.9988821,34.7833136 11.6299772,32.5792358 12.0483626,32.1931216 C12.4667028,31.8016475 16.1673804,31.9249901 18.7661163,33.3192957 C19.0101266,33.4502372 19.2568439,33.6160934 19.5010167,33.8066535 L19.5,22.292534 C19.5,21.8551262 20.1721323,21.5 21,21.5 Z" id="形状结合" fill="url(#linearGradient-1)" fill-rule="nonzero"></path>
                        <path d="M13.8323011,5 C11.4691752,6.5 10.0539464,14.6665776 10.0539464,17 C10.0539464,19.3334224 10.6974257,20.4003903 11.0563785,21.5 C11.5409685,20.1580131 12.7793637,19.1352566 14.0476761,17.8346507 C16.1954269,15.6413548 23.1450033,14.9946807 26.25,13.179747 C24.7543487,8.03642096 16.1954269,3.5 13.8323011,5 Z" id="路径" fill="url(#linearGradient-2)" fill-rule="nonzero"></path>
                        <path d="M12.6291065,16.0520014 C11.4538352,17.2640069 10.9515541,18.9215259 10.5,20.1642284 C11.0407543,21.8120381 11.9884557,23.2846704 13.2204731,24.4726251 C15.1660593,26.3448885 17.819615,27.4997837 20.7407712,27.4997837 C26.6611261,27.4997837 31.5,22.742714 31.5,16.9343179 C31.5,13.6694691 30.4336802,10.2356109 28.3010405,6.63274349 L28.3010502,6.63273778 C27.8790634,5.91983603 26.9590544,5.68400287 26.2461527,6.10598968 C26.0794633,6.20465789 25.9334622,6.33467732 25.8162151,6.4888652 C24.2586093,8.53722249 22.0897701,10.0466014 19.3096973,11.017002 C16.416405,12.697664 15.3461829,13.25 12.6291065,16.0520014 Z" id="路径" fill="url(#linearGradient-3)" fill-rule="nonzero"></path>
                    </g>
                    <g id="编组-5" transform="translate(231.000000, 0.000000)">
                        <mask id="mask-5" fill="white">
                            <use xlink:href="#path-4"></use>
                        </mask>
                        <g id="矩形"></g>
                        <path d="M18.494574,27.7611643 C16.533158,26.4267666 15.0787164,25.7595678 14.1312492,25.7595678 C12.7100483,25.7595678 9.92937,26.5707242 11.4228541,29.371535 C12.4185102,31.2387422 14.0685293,33.0347532 16.3729116,34.7595678 L18.494574,27.7611643 Z" id="路径-48" fill="url(#linearGradient-6)" mask="url(#mask-5)"></path>
                        <path d="M21.0556019,23.2221218 C15.431159,34.0722485 12.2764547,40.4974997 11.591489,42.4978753 C10.5640403,45.4984387 11.0657877,49.021262 11.591489,50.8611395 C12.1171903,52.701017 12.6903078,54.8625355 18.7047903,57.6341415 C24.7192727,60.4057475 29.0882321,57.5419473 31.68605,54.610364 C33.4179286,52.6559751 35.5207699,47.9552543 37.994574,40.5082017 C37.3392933,39.24893 36.6455159,38.4407901 35.913242,38.0837819 C35.180968,37.7267737 34.2171369,37.7267737 33.0217489,38.0837819 C32.3665737,36.608789 31.6139771,35.6316002 30.7639591,35.1522155 C29.913941,34.6728308 28.9338412,34.6728308 27.8236596,35.1522155 C27.079242,33.9238831 26.4056334,33.1788604 25.802834,32.9171473 C25.2000345,32.6554343 24.1576444,32.6554343 22.6756635,32.9171473 L25.802834,26.3989133 C25.9300158,24.8977909 25.5327956,23.8388604 24.6111734,23.2221218 C23.6895512,22.6053831 22.5043607,22.6053831 21.0556019,23.2221218 Z" id="路径-30" fill="url(#linearGradient-7)" mask="url(#mask-5)"></path>
                        <path d="M9.81464983,9.10215771 C6.24663284,7.76337873 3.82341579,8.40260919 2.54499866,11.0198491 C0.627372978,14.9457089 4.46262435,17.7952457 7.78184772,19.5383185 C9.9946633,20.7003671 12.8164964,21.5090482 16.2473471,21.9643619 C18.2652381,17.8172749 19.4817333,14.6368025 19.8968328,12.4229446 C20.519482,9.10215771 19.0011715,4.62661149 15.029139,4.02241606 C12.3811174,3.6196191 10.6429543,5.31286632 9.81464983,9.10215771 Z" id="路径-54" fill="url(#linearGradient-8)" fill-rule="nonzero" mask="url(#mask-5)"></path>
                    </g>
                    <g id="ic_good" transform="translate(77.000000, 0.000000)">
                        <rect id="矩形" x="0" y="0" width="42.3529412" height="42.3529412"></rect>
                        <g id="Group-7" transform="translate(3.000000, 5.000000)">
                            <g id="Rectangle" transform="translate(8.825279, 0.000000)">
                                <mask id="mask-10" fill="white">
                                    <use xlink:href="#path-9"></use>
                                </mask>
                                <use id="Mask" fill="#F6CEBB" xlink:href="#path-9"></use>
                                <rect fill="#F5C5AF" mask="url(#mask-10)" x="-3.27965789" y="21.6094849" width="33.0576186" height="26.8601243"></rect>
                            </g>
                            <g id="Rectangle" transform="translate(0.000000, 10.930551)">
                                <mask id="mask-12" fill="white">
                                    <use xlink:href="#path-11"></use>
                                </mask>
                                <use id="Mask" fill="#FFCD23" xlink:href="#path-11"></use>
                                <rect fill="#FFFFFF" mask="url(#mask-12)" x="5.5456216" y="-6.5115453" width="5.33187396" height="44.0506039"></rect>
                            </g>
                        </g>
                    </g>
                </g>
            </g>
        </g>
    </g>
</svg>