<?xml version="1.0" encoding="UTF-8"?>
<svg width="40px" height="40px" viewBox="0 0 40 40" version="1.1" xmlns="http://www.w3.org/2000/svg" xmlns:xlink="http://www.w3.org/1999/xlink">
    <title>ic_emoji</title>
    <g id="消息&amp;导航栏" stroke="none" stroke-width="1" fill="none" fill-rule="evenodd">
        <g id="切图汇总" transform="translate(-121.000000, -582.000000)" fill-rule="nonzero">
            <g id="ic_emoji" transform="translate(121.000000, 582.000000)">
                <rect id="矩形" x="0" y="0" width="40" height="40"></rect>
                <path d="M4,19.5 C4,25.3948822 7.14488213,30.841978 12.2499999,33.7894192 C17.3551177,36.7368603 23.6448823,36.7368603 28.7500001,33.7894192 C33.8551179,30.841978 37,25.3948822 37,19.5 C37,13.6051178 33.8551179,8.15802197 28.7500001,5.21058085 C23.6448823,2.26313972 17.3551177,2.26313972 12.2499999,5.21058085 C7.14488213,8.15802197 4,13.6051178 4,19.5 Z" id="路径" fill="#FFD629"></path>
                <path d="M34.7705199,12 C34.709108,11.9764423 36.1945084,14.7032402 36.6704507,17.0941282 C38.4513959,26.0648982 32.8360449,34.8222666 24.1232311,36.6598912 C22.6685366,36.968138 21.2176804,37.0590312 19.8052066,36.9641861 C17.3794364,36.7982071 15.061137,36.0631572 13,34.8696891 C13,34.8696891 26.3916333,24.211466 34.7705199,12 Z" id="路径" fill="#FF9A2C" opacity="0.1"></path>
                <path d="M36.1879306,15.0065204 C39.0174875,23.3155843 34.1662716,32.4831492 26.0796355,35.1582999 C24.6744293,35.6220437 21.9252793,36.242924 19,35.9018231 C19,35.8826601 25.3797126,35.3001058 31.005132,28.5915332 C36.9720893,21.4751726 36.1036948,14.7612344 36.1879306,15.0065204 Z" id="路径" fill="#FF9A2C" opacity="0.2"></path>
                <path d="M30.9141826,7.58179682 C29.3073006,6.24123821 27.2368193,5.28424984 24.7931014,4.58684941 C21.0410909,3.51750208 16.9590605,3.90107231 12.9831079,5.80730016 C7.51027989,8.43030068 3.55004253,15.334565 4.04114339,21.3128364 C4.20615328,23.3275488 4.43795289,25.2570233 5.21978546,26.9501566 C5.2394295,26.9889011 5.28264637,27.0082733 5.32586325,26.99665 C6.1548415,26.7331876 13.9220927,24.1450571 20.0903196,19.6235776 C28.4704647,13.4825794 31.5742222,8.13196827 30.9141826,7.58179682 Z" id="路径" fill="#FCE99A" opacity="0.24"></path>
                <path d="M7.61131968,16.4349062 C9.30504535,18.871154 13.9856541,18.4128012 18.0657518,15.4111466 C22.1458496,12.4094919 24.0803864,8.0012009 22.3866607,5.56495306 C21.2910123,3.98897704 18.8705094,3.56861582 16.036932,4.46221541 C13.2033546,5.35581501 10.3871905,7.42761637 8.64926148,9.89719198 C6.91133246,12.3667676 6.51567128,14.8589302 7.61131968,16.4349062 L7.61131968,16.4349062 Z" id="路径" fill="#F9F2D7" opacity="0.2"></path>
                <path d="M22,13 C22,14.1045695 22.8954305,15 24,15 C25.1045695,15 26,14.1045695 26,13 C26,11.8954305 25.1045695,11 24,11 C22.8954305,11 22,11.8954305 22,13 Z" id="路径" fill="#211715"></path>
                <path d="M15,17.0697021 L11.7657398,22 L11.1197214,21.6852164 C10.4528636,21.3625632 10.1902884,20.5874087 10.532053,19.9578415 L11.6240326,18.0966835 L9.72348793,17.3254637 C9.06913374,17.0067454 8.81072636,16.24733 9.1483231,15.6295672 L9.49008771,15 L15,17.0697021 L15,17.0697021 Z" id="路径" fill="#211715"></path>
                <path d="M23.4232218,19 C24.5322091,21.2926715 23.9939051,23.8491016 22.2211444,24.7134184 C20.4483837,25.5777353 18.1089873,24.421255 17,22.1285835 L18.238504,21.8039575 C19.7522312,21.4103484 21.1566785,20.7245759 22.4032773,19.7750447 L23.4232218,19 L23.4232218,19 Z" id="路径" fill="#F94616"></path>
                <path d="M20.1688644,22.6657979 L20.4575248,22.9134972 C20.5756131,23.0167053 20.729784,23.0290903 20.857713,22.9423955 L21.7400954,22.3644303 C21.8516233,22.2901205 21.9270686,22.1538858 21.94675,21.9970096 L21.9959535,21.5635356 C22.0418767,21.1507034 21.6876117,20.8575924 21.4055118,21.0722652 C21.1070107,21.299323 20.7199433,21.5594073 20.2443097,21.8029784 C19.9556493,21.951598 19.9130063,22.4428684 20.1688644,22.6657979 L20.1688644,22.6657979 Z" id="路径" fill="#E53600" opacity="0.68"></path>
                <path d="M36.1879306,15.0073569 C39.0174875,23.3160897 34.1662716,32.4832893 26.0796355,35.1583334 C24.6744293,35.6220588 21.9252793,36.2429143 19,35.901827 C19,35.8826648 23.7064835,34.1454191 29.5375148,27.6126397 C35.7211877,20.6843522 36.1036948,14.7620806 36.1879306,15.0073569 Z" id="路径" fill="#FF9A2C" opacity="0.19"></path>
                <path d="M36.1879306,15.0096833 C39.0174875,23.3174953 34.1662716,32.4836791 26.0796355,35.1584267 C24.6744293,35.6221007 21.9252793,36.2428874 19,35.9018379 C19,35.8826778 22.4429466,32.656503 28.2739779,26.1244475 C34.4576508,19.1969279 36.1036948,14.7644342 36.1879306,15.0096833 Z" id="路径" fill="#FF9A2C" opacity="0.15"></path>
            </g>
        </g>
    </g>
</svg>