<svg width="14" height="14" viewBox="0 0 14 14" fill="none" xmlns="http://www.w3.org/2000/svg">
<path d="M12.3674 8.60299L12.3673 8.60288C12.164 8.42736 12.0233 8.19823 11.936 7.99058C11.8525 7.79197 11.7878 7.54148 11.8004 7.28167L11.8017 6.70412C11.7898 6.44556 11.8542 6.19614 11.9374 5.99799C12.0245 5.79048 12.165 5.56116 12.3685 5.38545L12.3689 5.38514L12.8573 4.9639L11.7463 3.09885L11.0885 3.31014C11.0885 3.31015 11.0885 3.31016 11.0884 3.31017C10.8352 3.39152 10.5674 3.39458 10.3455 3.365C10.1329 3.33666 9.88646 3.2682 9.66959 3.13377L9.15091 2.84566C8.92118 2.7308 8.73332 2.55573 8.59801 2.38675C8.45831 2.21231 8.32185 1.97843 8.26548 1.71366L8.12983 1.07812H5.86762L5.73256 1.71221C5.67613 1.97716 5.53967 2.21106 5.39981 2.38563C5.26451 2.5545 5.07713 2.72892 4.84836 2.84373L4.3307 3.13354C4.11335 3.26866 3.86616 3.33726 3.65319 3.36557C3.43122 3.39509 3.16348 3.39186 2.91047 3.3106C2.91046 3.3106 2.91046 3.3106 2.91046 3.3106L2.25111 3.09884L1.1402 4.96394L1.63006 5.38652L1.63017 5.38662C1.83379 5.56233 1.97444 5.79176 2.06164 5.99936C2.14509 6.19802 2.20969 6.44846 2.19715 6.70804L2.1957 7.28558C2.20753 7.54397 2.14318 7.79333 2.05998 7.99151C1.97286 8.199 1.83229 8.42853 1.62855 8.60436L1.62844 8.60445L1.14016 9.02567L2.25099 10.8908L2.90866 10.6797C2.90872 10.6796 2.90878 10.6796 2.90884 10.6796C3.16195 10.5983 3.42974 10.5953 3.65154 10.6249C3.86407 10.6532 4.11057 10.7216 4.32749 10.8561L4.8461 11.144C5.07588 11.2588 5.26386 11.4337 5.39939 11.6028C5.53937 11.7774 5.67575 12.0113 5.73221 12.2761L5.73225 12.2763L5.86756 12.9115H8.12987L8.26504 12.278L8.26518 12.2774L8.99867 12.4339C9.04901 12.197 9.27371 11.9166 9.49784 11.8102L12.3674 8.60299ZM12.3674 8.60299L12.8573 9.02568L11.7464 10.8908L11.087 10.6792C10.834 10.598 10.5663 10.5948 10.3445 10.6242C10.1315 10.6525 9.88436 10.721 9.66704 10.8559L9.14899 11.146L12.3674 8.60299Z" stroke="#D1D9EC" style="stroke:#D1D9EC;stroke:color(display-p3 0.8196 0.8510 0.9255);stroke-opacity:1;" stroke-width="1.5"/>
<path fill-rule="evenodd" clip-rule="evenodd" d="M6.9987 8.57574C7.87183 8.57574 8.57965 7.86793 8.57965 6.99479C8.57965 6.12166 7.87183 5.41384 6.9987 5.41384C6.12556 5.41384 5.41775 6.12166 5.41775 6.99479C5.41775 7.86793 6.12556 8.57574 6.9987 8.57574ZM9.66536 6.99479C9.66536 8.46755 8.47146 9.66146 6.9987 9.66146C5.52594 9.66146 4.33203 8.46755 4.33203 6.99479C4.33203 5.52203 5.52594 4.32812 6.9987 4.32812C8.47146 4.32812 9.66536 5.52203 9.66536 6.99479Z" fill="#006CFF" style="fill:#006CFF;fill:color(display-p3 0.0000 0.4242 1.0000);fill-opacity:1;"/>
<mask id="mask0_1969_2417" style="mask-type:alpha" maskUnits="userSpaceOnUse" x="4" y="4" width="6" height="6">
<path fill-rule="evenodd" clip-rule="evenodd" d="M6.99821 8.57281C7.87135 8.57281 8.57916 7.865 8.57916 6.99186C8.57916 6.11873 7.87135 5.41091 6.99821 5.41091C6.12507 5.41091 5.41726 6.11873 5.41726 6.99186C5.41726 7.865 6.12507 8.57281 6.99821 8.57281ZM9.66488 6.99186C9.66488 8.46462 8.47097 9.65853 6.99821 9.65853C5.52545 9.65853 4.33154 8.46462 4.33154 6.99186C4.33154 5.5191 5.52545 4.3252 6.99821 4.3252C8.47097 4.3252 9.66488 5.5191 9.66488 6.99186Z" fill="#ADB6CC" style="fill:#ADB6CC;fill:color(display-p3 0.6784 0.7137 0.8000);fill-opacity:1;"/>
</mask>
<g mask="url(#mask0_1969_2417)">
<rect x="6.68066" y="4.0957" width="3.61905" height="6.51429" fill="#A5FE33" style="fill:#A5FE33;fill:color(display-p3 0.6471 0.9961 0.2000);fill-opacity:1;"/>
<rect x="3.06055" y="6.99219" width="4.34286" height="2.89524" fill="#A5FE33" style="fill:#A5FE33;fill:color(display-p3 0.6471 0.9961 0.2000);fill-opacity:1;"/>
</g>
</svg>
