<svg width="36" height="36" viewBox="0 0 36 36" fill="none" xmlns="http://www.w3.org/2000/svg">
<rect width="36" height="36" rx="18" fill="#22262E" fill-opacity="0.4" style="fill:#22262E;fill:color(display-p3 0.1333 0.1490 0.1804);fill-opacity:0.4;"/>
<path d="M25.931 20.1132L25.9308 20.113C25.6772 19.8941 25.4956 19.602 25.3811 19.3294C25.2707 19.0668 25.1895 18.744 25.2065 18.4184L25.2085 17.5707C25.1923 17.2464 25.2731 16.9247 25.3831 16.6626C25.4975 16.3902 25.6789 16.0979 25.9326 15.8787L25.933 15.8784L26.8119 15.1204L24.9884 12.0592C24.9855 12.0578 24.9821 12.0562 24.9782 12.0548C24.9733 12.053 24.9685 12.0516 24.964 12.0507C24.9617 12.0503 24.9597 12.0499 24.9581 12.0497L23.8219 12.4147C23.8219 12.4147 23.8218 12.4148 23.8218 12.4148C23.5051 12.5165 23.1611 12.5223 22.8682 12.4833C22.5855 12.4456 22.267 12.355 21.9942 12.1845L21.2337 11.7621C20.9439 11.6184 20.7 11.3937 20.521 11.1702C20.3372 10.9407 20.1648 10.6411 20.0946 10.3121C20.0946 10.312 20.0946 10.3118 20.0945 10.3117L19.8545 9.18719C19.854 9.18674 19.8534 9.18629 19.8528 9.18583C19.8496 9.18327 19.8462 9.18103 19.843 9.17922C19.8419 9.1786 19.8409 9.17808 19.8401 9.17763H16.156C16.1551 9.17808 16.1541 9.1786 16.153 9.17922C16.1498 9.18105 16.1464 9.18332 16.1431 9.1859C16.1424 9.18648 16.1417 9.18704 16.141 9.18759L15.9021 10.3096C15.8319 10.639 15.6594 10.9388 15.4753 11.1685C15.2963 11.3919 15.0529 11.6159 14.7641 11.7596L14.0051 12.1845C13.7318 12.3557 13.4125 12.4465 13.1294 12.4841C12.8364 12.5231 12.4925 12.517 12.176 12.4154C12.176 12.4154 12.176 12.4154 12.176 12.4154L11.0376 12.0498C11.0359 12.05 11.034 12.0503 11.0317 12.0507C11.0273 12.0516 11.0225 12.053 11.0176 12.0548C11.0136 12.0563 11.0101 12.0578 11.0072 12.0593L9.1839 15.1204L10.0648 15.8804L10.065 15.8805C10.3189 16.0996 10.5004 16.3921 10.6149 16.6646C10.7252 16.9273 10.8063 17.2501 10.7894 17.5754L10.7872 18.423C10.8033 18.7471 10.7225 19.0687 10.6125 19.3309C10.4981 19.6033 10.3167 19.8959 10.0626 20.1151L10.0625 20.1152L9.18385 20.8732L11.007 23.9342C11.0098 23.9357 11.0133 23.9372 11.0172 23.9387C11.0221 23.9405 11.027 23.9418 11.0314 23.9428C11.0338 23.9433 11.0359 23.9436 11.0376 23.9438L12.1734 23.5792C12.4901 23.4775 12.834 23.4717 13.127 23.5107C13.4096 23.5484 13.7281 23.639 14.001 23.8095L14.7614 24.2317C15.0514 24.3753 15.2955 24.5997 15.4748 24.8234C15.659 25.0533 15.8314 25.353 15.9016 25.6823L15.9016 25.6824L16.141 26.8062C16.1416 26.8067 16.1422 26.8072 16.1429 26.8077C16.1461 26.8103 16.1495 26.8125 16.1527 26.8143C16.1539 26.815 16.1549 26.8155 16.1558 26.816H19.8402C19.8412 26.8155 19.8422 26.815 19.8433 26.8143C19.8465 26.8125 19.8499 26.8103 19.8531 26.8078C19.8536 26.8074 19.8541 26.807 19.8546 26.8066L20.0939 25.6849L20.0941 25.6842L20.8867 25.8533C20.9594 25.5111 21.284 25.1061 21.6077 24.9524L25.931 20.1132ZM25.931 20.1132L26.8118 20.8733L24.9886 23.9343C24.9858 23.9357 24.9824 23.9373 24.9785 23.9387C24.9736 23.9405 24.9687 23.9418 24.9643 23.9428C24.9618 23.9433 24.9597 23.9436 24.958 23.9438L23.8197 23.5786C23.8196 23.5785 23.8195 23.5785 23.8195 23.5785C23.5031 23.4769 23.1594 23.471 22.8666 23.5099C22.5835 23.5474 22.2642 23.638 21.991 23.8089L21.2316 24.2341L25.931 20.1132Z" stroke="#D5E0F2" style="stroke:#D5E0F2;stroke:color(display-p3 0.8353 0.8784 0.9490);stroke-opacity:1;" stroke-width="1.62089"/>
<path fill-rule="evenodd" clip-rule="evenodd" d="M17.9979 20.279C19.2591 20.279 20.2815 19.2566 20.2815 17.9954C20.2815 16.7342 19.2591 15.7118 17.9979 15.7118C16.7367 15.7118 15.7143 16.7342 15.7143 17.9954C15.7143 19.2566 16.7367 20.279 17.9979 20.279ZM21.8497 17.9954C21.8497 20.1227 20.1252 21.8472 17.9979 21.8472C15.8705 21.8472 14.146 20.1227 14.146 17.9954C14.146 15.8681 15.8705 14.1436 17.9979 14.1436C20.1252 14.1436 21.8497 15.8681 21.8497 17.9954Z" fill="#D5E0F2" style="fill:#D5E0F2;fill:color(display-p3 0.8353 0.8784 0.9490);fill-opacity:1;"/>
</svg>
