<svg width="24" height="24" viewBox="0 0 24 24" fill="none" xmlns="http://www.w3.org/2000/svg">
<path d="M1.5 3H2.46922C2.92809 3 3.32807 3.3123 3.43937 3.75746L4 6M4 6L6.31063 15.2425C6.42193 15.6877 6.82191 16 7.28078 16H18.7192C19.1781 16 19.5781 15.6877 19.6894 15.2425L21.6894 7.24253C21.8472 6.61139 21.3698 6 20.7192 6H4Z" stroke="#D5E0F2" style="stroke:#D5E0F2;stroke:color(display-p3 0.8353 0.8784 0.9490);stroke-opacity:1;" stroke-width="1.7" stroke-linejoin="round"/>
<path d="M9.6001 10.7998H15.6001" stroke="#D5E0F2" style="stroke:#D5E0F2;stroke:color(display-p3 0.8353 0.8784 0.9490);stroke-opacity:1;" stroke-width="1.7"/>
<path d="M6.5 21.3857C7.32843 21.3857 8 20.7142 8 19.8857C8 19.0573 7.32843 18.3857 6.5 18.3857C5.67157 18.3857 5 19.0573 5 19.8857C5 20.7142 5.67157 21.3857 6.5 21.3857Z" fill="#D5E0F2" style="fill:#D5E0F2;fill:color(display-p3 0.8353 0.8784 0.9490);fill-opacity:1;"/>
<path d="M19.5 21.3857C20.3284 21.3857 21 20.7142 21 19.8857C21 19.0573 20.3284 18.3857 19.5 18.3857C18.6716 18.3857 18 19.0573 18 19.8857C18 20.7142 18.6716 21.3857 19.5 21.3857Z" fill="#D5E0F2" style="fill:#D5E0F2;fill:color(display-p3 0.8353 0.8784 0.9490);fill-opacity:1;"/>
</svg>
