<svg width="24" height="24" viewBox="0 0 24 24" fill="none" xmlns="http://www.w3.org/2000/svg">
<path fill-rule="evenodd" clip-rule="evenodd" d="M22.5502 11.3246C22.5502 5.8846 18.1402 1.47461 12.7002 1.47461V3.17461C17.2013 3.17461 20.8502 6.82349 20.8502 11.3246H22.5502Z" fill="#D5E0F2" style="fill:#D5E0F2;fill:color(display-p3 0.8353 0.8784 0.9490);fill-opacity:1;"/>
<path fill-rule="evenodd" clip-rule="evenodd" d="M18.5502 11.3246C18.5502 8.09374 15.9311 5.47461 12.7002 5.47461V7.17461C14.9922 7.17461 16.8502 9.03263 16.8502 11.3246H18.5502Z" fill="#D5E0F2" style="fill:#D5E0F2;fill:color(display-p3 0.8353 0.8784 0.9490);fill-opacity:1;"/>
<path d="M2.85484 10.5577C2.40463 9.25531 2.97455 7.8565 4.08298 7.03738C4.92332 6.41639 5.76747 5.78923 6.24917 5.43096C6.47806 5.26071 6.79893 5.29795 6.9837 5.51527L9.60864 8.60252C9.78025 8.80437 9.78034 9.10078 9.60884 9.30272L7.99928 11.198C7.85276 11.3705 7.82836 11.6166 7.9442 11.811C8.46571 12.6864 9.03799 13.4363 9.81132 14.2094C10.5892 14.9871 11.3389 15.5482 12.2193 16.0684C12.4139 16.1834 12.6596 16.1589 12.832 16.0127L14.7195 14.4117C14.9215 14.2403 15.2179 14.2404 15.4198 14.412L18.5096 17.0375C18.7263 17.2217 18.7633 17.5422 18.5943 17.7709L16.978 19.9575C16.1654 21.0567 14.7774 21.6157 13.4846 21.1709C11.0947 20.3487 8.85017 18.9841 6.9427 17.0772C5.04068 15.1757 3.67806 12.9392 2.85484 10.5577Z" stroke="#D5E0F2" style="stroke:#D5E0F2;stroke:color(display-p3 0.8353 0.8784 0.9490);stroke-opacity:1;" stroke-width="1.7"/>
</svg>
